<?xml version="1.0" encoding="utf-8"?>
<svg width="139px" height="84px" viewBox="0 0 139 84" version="1.1" xmlns:xlink="http://www.w3.org/1999/xlink" xmlns="http://www.w3.org/2000/svg">
  <defs>
    <filter id="filter_1">
      <feColorMatrix in="SourceGraphic" type="matrix" values="0 0 0 0 1 0 0 0 0 1 0 0 0 0 1 0 0 0 1 0" />
    </filter>
    <rect width="139" height="84" id="artboard_1" />
    <clipPath id="clip_1">
      <use xlink:href="#artboard_1" clip-rule="evenodd" />
    </clipPath>
  </defs>
  <g id="Artboard" clip-path="url(#clip_1)">
    <use xlink:href="#artboard_1" stroke="none" fill="#FFFFFF" />
    <g id="Group" transform="translate(52 32)">
      <path d="M1.999 0L14.001 0Q14.0992 0 14.1969 0.00962573Q14.2947 0.0192515 14.391 0.0384102Q14.4873 0.057569 14.5813 0.0860763Q14.6753 0.114584 14.766 0.152165Q14.8567 0.189746 14.9433 0.236039Q15.0299 0.282333 15.1116 0.336892Q15.1932 0.391452 15.2692 0.453752Q15.3451 0.516052 15.4145 0.585494Q15.4839 0.654935 15.5462 0.730848Q15.6085 0.806761 15.6631 0.888415Q15.7177 0.970069 15.764 1.05668Q15.8103 1.14329 15.8478 1.23402Q15.8854 1.32474 15.9139 1.41872Q15.9424 1.5127 15.9616 1.60901Q15.9807 1.70533 15.9904 1.80306Q16 1.9008 16 1.999L16 14.001Q16 14.0992 15.9904 14.1969Q15.9807 14.2947 15.9616 14.391Q15.9424 14.4873 15.9139 14.5813Q15.8854 14.6753 15.8478 14.766Q15.8103 14.8567 15.764 14.9433Q15.7177 15.0299 15.6631 15.1116Q15.6085 15.1932 15.5462 15.2692Q15.4839 15.3451 15.4145 15.4145Q15.3451 15.4839 15.2692 15.5462Q15.1932 15.6085 15.1116 15.6631Q15.0299 15.7177 14.9433 15.764Q14.8567 15.8103 14.766 15.8478Q14.6753 15.8854 14.5813 15.9139Q14.4873 15.9424 14.391 15.9616Q14.2947 15.9807 14.1969 15.9904Q14.0992 16 14.001 16L1.999 16Q1.9008 16 1.80306 15.9904Q1.70533 15.9807 1.60901 15.9616Q1.5127 15.9424 1.41872 15.9139Q1.32474 15.8854 1.23402 15.8478Q1.14329 15.8103 1.05668 15.764Q0.970069 15.7177 0.888415 15.6631Q0.806761 15.6085 0.730848 15.5462Q0.654935 15.4839 0.585494 15.4145Q0.516052 15.3451 0.453752 15.2692Q0.391452 15.1932 0.336892 15.1116Q0.282333 15.0299 0.236039 14.9433Q0.189746 14.8567 0.152165 14.766Q0.114584 14.6753 0.0860763 14.5813Q0.057569 14.4873 0.0384102 14.391Q0.0192515 14.2947 0.00962573 14.1969Q0 14.0992 0 14.001L0 1.999Q0 1.9008 0.00962573 1.80306Q0.0192515 1.70533 0.0384102 1.60901Q0.057569 1.5127 0.0860763 1.41872Q0.114584 1.32474 0.152165 1.23402Q0.189746 1.14329 0.236039 1.05668Q0.282333 0.970069 0.336892 0.888415Q0.391452 0.806761 0.453752 0.730848Q0.516052 0.654935 0.585494 0.585494Q0.654935 0.516052 0.730848 0.453752Q0.806761 0.391452 0.888415 0.336892Q0.970069 0.282333 1.05668 0.236039Q1.14329 0.189746 1.23402 0.152165Q1.32474 0.114584 1.41872 0.0860763Q1.5127 0.057569 1.60901 0.0384102Q1.70533 0.0192515 1.80306 0.00962573Q1.9008 0 1.999 0L1.999 0Z" id="Rectangle-2" fill="#5680C2" fill-rule="evenodd" stroke="none" />
      <g id="check-fill" transform="translate(1.0000305 3.3321838)" filter="url(#filter_1)">
        <path d="M5.2499 7.58364L12.8327 0L14 1.16646L5.2499 9.91656L0 4.66667L1.16646 3.50021L5.2499 7.58364Z" id="Shape" fill="#000000" fill-rule="evenodd" stroke="none" />
      </g>
    </g>
    <path d="M1.999 0L14.001 0Q14.0992 0 14.1969 0.00962573Q14.2947 0.0192515 14.391 0.0384102Q14.4873 0.057569 14.5813 0.0860763Q14.6753 0.114584 14.766 0.152165Q14.8567 0.189746 14.9433 0.236039Q15.0299 0.282333 15.1116 0.336892Q15.1932 0.391452 15.2692 0.453752Q15.3451 0.516052 15.4145 0.585494Q15.4839 0.654935 15.5462 0.730848Q15.6085 0.806761 15.6631 0.888415Q15.7177 0.970069 15.764 1.05668Q15.8103 1.14329 15.8478 1.23402Q15.8854 1.32474 15.9139 1.41872Q15.9424 1.5127 15.9616 1.60901Q15.9807 1.70533 15.9904 1.80306Q16 1.9008 16 1.999L16 14.001Q16 14.0992 15.9904 14.1969Q15.9807 14.2947 15.9616 14.391Q15.9424 14.4873 15.9139 14.5813Q15.8854 14.6753 15.8478 14.766Q15.8103 14.8567 15.764 14.9433Q15.7177 15.0299 15.6631 15.1116Q15.6085 15.1932 15.5462 15.2692Q15.4839 15.3451 15.4145 15.4145Q15.3451 15.4839 15.2692 15.5462Q15.1932 15.6085 15.1116 15.6631Q15.0299 15.7177 14.9433 15.764Q14.8567 15.8103 14.766 15.8478Q14.6753 15.8854 14.5813 15.9139Q14.4873 15.9424 14.391 15.9616Q14.2947 15.9807 14.1969 15.9904Q14.0992 16 14.001 16L1.999 16Q1.9008 16 1.80306 15.9904Q1.70533 15.9807 1.60901 15.9616Q1.5127 15.9424 1.41872 15.9139Q1.32474 15.8854 1.23402 15.8478Q1.14329 15.8103 1.05668 15.764Q0.970069 15.7177 0.888415 15.6631Q0.806761 15.6085 0.730848 15.5462Q0.654935 15.4839 0.585494 15.4145Q0.516052 15.3451 0.453752 15.2692Q0.391452 15.1932 0.336892 15.1116Q0.282333 15.0299 0.236039 14.9433Q0.189746 14.8567 0.152165 14.766Q0.114584 14.6753 0.0860763 14.5813Q0.057569 14.4873 0.0384102 14.391Q0.0192515 14.2947 0.00962573 14.1969Q0 14.0992 0 14.001L0 1.999Q0 1.9008 0.00962573 1.80306Q0.0192515 1.70533 0.0384102 1.60901Q0.057569 1.5127 0.0860763 1.41872Q0.114584 1.32474 0.152165 1.23402Q0.189746 1.14329 0.236039 1.05668Q0.282333 0.970069 0.336892 0.888415Q0.391452 0.806761 0.453752 0.730848Q0.516052 0.654935 0.585494 0.585494Q0.654935 0.516052 0.730848 0.453752Q0.806761 0.391452 0.888415 0.336892Q0.970069 0.282333 1.05668 0.236039Q1.14329 0.189746 1.23402 0.152165Q1.32474 0.114584 1.41872 0.0860763Q1.5127 0.057569 1.60901 0.0384102Q1.70533 0.0192515 1.80306 0.00962573Q1.9008 0 1.999 0L1.999 0Z" transform="translate(78 32)" id="Rectangle-2" fill="#5C5C5C" fill-rule="evenodd" stroke="none" />
  </g>
</svg>